HIERARCHY
ROOT Hips
{
	OFFSET 0.00000 0.00000 0.00000
	CHANNELS 6 Xposition Yposition Zposition Zrotation Yrotation Xrotation 
	JOINT LHipJoint
	{
		OFFSET 0 0 0
		CHANNELS 3 Zrotation Yrotation Xrotation
		JOINT LeftHip
		{
			OFFSET 1.62329 -1.80800 0.67318
			CHANNELS 3 Zrotation Yrotation Xrotation
			JOINT LeftKnee
			{
				OFFSET 2.57139 -7.06484 0.00000
				CHANNELS 3 Zrotation Yrotation Xrotation
				JOINT LeftAnkle
				{
					OFFSET 2.52017 -6.92413 0.00000
					CHANNELS 3 Zrotation Yrotation Xrotation
					JOINT LeftToe
					{
						OFFSET 0.23295 -0.64001 2.10214
						CHANNELS 3 Zrotation Yrotation Xrotation
						End Site
						{
							OFFSET 0.00000 -0.00000 1.10139
						}
					}
				}
			}
		}
	}
	JOINT RHipJoint
	{
		OFFSET 0 0 0
		CHANNELS 3 Zrotation Yrotation Xrotation
		JOINT RightHip
		{
			OFFSET -1.48061 -1.80800 0.67318
			CHANNELS 3 Zrotation Yrotation Xrotation
			JOINT RightKnee
			{
				OFFSET -2.63258 -7.23296 0.00000
				CHANNELS 3 Zrotation Yrotation Xrotation
				JOINT RightAnkle
				{
					OFFSET -2.54779 -7.00000 0.00000
					CHANNELS 3 Zrotation Yrotation Xrotation
					JOINT RightToe
					{
						OFFSET -0.23067 -0.63376 2.12161
						CHANNELS 3 Zrotation Yrotation Xrotation
						End Site
						{
							OFFSET -0.00000 -0.00000 1.11000
						}
					}
				}
			}
		}
	}
	JOINT lowerback
	{
		OFFSET 0 0 0
		CHANNELS 3 Zrotation Yrotation Xrotation
		JOINT Chest
		{
			OFFSET -0.02108 2.07573 -0.16981
			CHANNELS 3 Zrotation Yrotation Xrotation
			JOINT Chest2
			{
				OFFSET 0.05070 2.08439 -0.03141
				CHANNELS 3 Zrotation Yrotation Xrotation
				JOINT lowerneck
				{
					OFFSET 0 0 0
					CHANNELS 3 Zrotation Yrotation Xrotation
					JOINT Neck
					{
						OFFSET -0.10731 1.60408 0.31370
						CHANNELS 3 Zrotation Yrotation Xrotation
						JOINT Head
						{
							OFFSET 0.08411 1.65679 -0.30822
							CHANNELS 3 Zrotation Yrotation Xrotation
							End Site
							{
								OFFSET 0.03911 1.69149 -0.14146
							}
						}
					}
				}
				JOINT LeftCollar
				{
					OFFSET 0 0 0
					CHANNELS 3 Zrotation Yrotation Xrotation
					JOINT LeftShoulder
					{
						OFFSET 3.52315 0.73219 -0.54694
CHANNELS 3 Zrotation Xrotation Yrotation
						JOINT LeftElbow
						{
OFFSET 0 -5.324620 -0.000000
CHANNELS 3 Zrotation Xrotation Yrotation
							JOINT LeftWrist
							{
OFFSET 0 -3.484020 -0.000000
CHANNELS 3 Zrotation Xrotation Yrotation
								JOINT lhand
								{
									OFFSET 0 0 0
CHANNELS 3 Zrotation Xrotation Yrotation
									JOINT LFingers
									{
OFFSET 0 -0.572480 -0.000000
CHANNELS 3 Zrotation Xrotation Yrotation
										End Site
										{
OFFSET 0 -0.461540 -0.000000
										}
									}
								}
								JOINT LThumb
								{
OFFSET 0 0.000000 0.000000
CHANNELS 3 Zrotation Xrotation Yrotation
									End Site
									{
OFFSET 0 -0.468590 0.468590
									}
								}
							}
						}
					}
				}
				JOINT RightCollar
				{
					OFFSET 0 0 0
					CHANNELS 3 Zrotation Yrotation Xrotation
					JOINT RightShoulder
					{
						OFFSET -3.41766 0.93592 -0.10019
CHANNELS 3 Zrotation Xrotation Yrotation
						JOINT RightElbow
						{
OFFSET 0 -5.335890 -0.000000
CHANNELS 3 Zrotation Xrotation Yrotation
							JOINT RightWrist
							{
OFFSET 0 -3.641340 -0.000000
CHANNELS 3 Zrotation Xrotation Yrotation
								JOINT rhand
								{
									OFFSET 0 0 0
CHANNELS 3 Zrotation Xrotation Yrotation
									JOINT RFingers
									{
OFFSET 0 -0.734810 -0.000000
CHANNELS 3 Zrotation Xrotation Yrotation
										End Site
										{
OFFSET 0 -0.592420 -0.000000
										}
									}
								}
								JOINT RThumb
								{
OFFSET 0 0.000000 0.000000
CHANNELS 3 Zrotation Xrotation Yrotation
									End Site
									{
OFFSET 0 -0.601470 0.601470
									}
								}
							}
						}
					}
				}
			}
		}
	}
}
MOTION
Frames: 7
Frame Time: 0.008333333333333333
0.673831 17.965029 -0.630403 2.184186 -30.840852 2.796396 0.000000 0.000000 0.000000 -24.141139 0.558736 -3.361129 0.569028 4.830926 13.426879 0.296332 2.910097 -11.775257 0.440023 -4.255800 -11.797519 0.000000 0.000000 0.000000 9.667996 6.894703 -10.408097 -1.712967 -8.240645 23.447334 -0.704302 -3.995554 -17.800974 -0.020452 -0.918760 2.525367 -4.966506 -1.243529 2.356657 2.061244 -1.764902 0.538711 4.965862 -0.881987 -0.551259 -10.921084 -0.374570 -21.985929 7.700021 1.673785 1.128915 4.327102 1.179037 3.618548 0.000000 0.000000 0.000000 63.201244 -60.315337 -4.738782 118.058419 -56.805277 84.038623 41.752201 16.722002 -26.288050 0.000000 0.000000 0.000000 -7.125000 0.000000 0.000000 15.212240 62.860091 -6.679639 0.000000 0.000000 0.000000 -11.588555 3.962416 16.497180 -23.539145 -34.673094 -7.442787 -26.439903 9.541651 -10.075196 0.000000 0.000000 0.000000 7.125000 0.000000 0.000000 0.406919 18.755942 0.254089
0.679611 17.968944 -0.643053 2.188749 -30.585224 2.819968 0.000000 0.000000 0.000000 -24.102644 0.376821 -3.348199 0.560362 4.794670 13.323952 0.288250 2.832581 -11.588853 0.399144 -4.055785 -11.233668 0.000000 0.000000 0.000000 9.681386 6.787401 -10.429833 -1.708828 -8.231178 23.418574 -0.703110 -4.135555 -17.874333 -0.030955 -1.135025 3.120527 -4.985380 -1.320693 2.390033 2.060756 -1.868841 0.652717 4.977070 -0.940222 -0.438983 -11.232869 -0.451206 -21.929764 7.920071 1.627944 1.377408 4.446573 1.164540 3.689178 0.000000 0.000000 0.000000 61.509071 -60.177441 -6.307039 118.619776 -56.666530 84.508054 41.131626 16.205460 -26.482390 0.000000 0.000000 0.000000 -7.125000 0.000000 0.000000 14.334810 62.903567 -6.299290 0.000000 0.000000 0.000000 -11.638297 3.898065 16.703660 -23.670366 -34.813761 -7.517544 -26.424820 9.358500 -9.843192 0.000000 0.000000 0.000000 7.125000 0.000000 0.000000 0.403486 19.014769 0.250007
0.684544 17.969580 -0.645629 2.202614 -29.796380 2.558145 0.000000 0.000000 0.000000 -24.051440 0.153866 -3.018927 0.558876 4.788671 13.306866 0.289382 2.447498 -11.362375 0.404465 -4.082693 -11.309477 0.000000 0.000000 0.000000 9.756558 6.315304 -10.005326 -1.697582 -8.205557 23.340059 -0.722364 -4.387069 -18.238837 -0.029913 -1.113688 3.061818 -4.898154 -1.519565 2.671309 1.992820 -2.144461 0.756788 4.869275 -1.079977 -0.461433 -11.271022 -0.529246 -21.679000 7.969524 1.500204 1.702872 4.458123 1.097737 3.766340 0.000000 0.000000 0.000000 59.565598 -59.949899 -8.348717 119.086610 -56.548381 84.897852 41.106758 16.240752 -26.532554 0.000000 0.000000 0.000000 -7.125000 0.000000 0.000000 14.300869 62.954467 -6.301349 0.000000 0.000000 0.000000 -11.547156 4.037169 16.699775 -23.775435 -34.925866 -7.577629 -26.648334 9.338672 -9.838815 0.000000 0.000000 0.000000 7.125000 0.000000 0.000000 0.244739 18.998616 0.151765
0.688059 17.971272 -0.655476 2.115954 -29.791732 2.604701 0.000000 0.000000 0.000000 -23.960509 0.185790 -3.103213 0.562688 4.804509 13.351882 0.289114 2.400974 -11.328552 0.411168 -4.116299 -11.404085 0.000000 0.000000 0.000000 9.848944 6.343959 -9.992299 -1.685368 -8.177420 23.254259 -0.718643 -4.414085 -18.216263 -0.022057 -0.958463 2.634502 -4.899450 -1.493615 2.716204 1.995014 -2.111517 0.801077 4.872196 -1.065087 -0.444711 -11.204535 -0.498885 -21.497661 7.873694 1.505369 2.085030 4.418898 1.088558 3.859049 0.000000 0.000000 0.000000 57.811095 -59.600317 -10.228032 119.572975 -56.422422 85.303329 41.186172 16.284928 -26.701687 0.000000 0.000000 0.000000 -7.125000 0.000000 0.000000 14.418068 63.173531 -6.428261 0.000000 0.000000 0.000000 -11.519535 4.134889 16.765230 -23.889122 -35.046752 -7.642792 -26.560524 9.298242 -9.722887 0.000000 0.000000 0.000000 7.125000 0.000000 0.000000 0.300172 19.135492 0.185155
0.693734 17.974383 -0.667081 2.014355 -29.784937 2.679114 0.000000 0.000000 0.000000 -23.862636 0.097978 -3.211701 0.571450 4.841221 13.456266 0.287714 2.442190 -11.330635 0.409067 -4.105787 -11.374402 0.000000 0.000000 0.000000 9.942172 6.299554 -10.049914 -1.675869 -8.155480 23.187345 -0.709047 -4.432961 -18.126042 -0.020386 -0.921847 2.533845 -4.870043 -1.477268 2.795844 2.003136 -2.092046 0.853527 4.865099 -1.056783 -0.438378 -11.128011 -0.485328 -21.426167 7.734075 1.499490 2.532138 4.365448 1.071921 3.989108 0.000000 0.000000 0.000000 56.158011 -59.314466 -11.989413 120.079580 -56.288512 85.725063 41.176893 16.529757 -27.095672 0.000000 0.000000 0.000000 -7.125000 0.000000 0.000000 14.412975 63.626254 -6.578598 0.000000 0.000000 0.000000 -11.476324 4.097694 16.758158 -23.927972 -35.087964 -7.665108 -26.517413 9.285734 -9.696188 0.000000 0.000000 0.000000 7.125000 0.000000 0.000000 0.329190 19.169145 0.202871
0.699808 17.976932 -0.678439 2.035377 -29.851832 2.733057 0.000000 0.000000 0.000000 -23.891369 -0.088405 -3.341469 0.584087 4.893501 13.604968 0.287884 2.592543 -11.427050 0.404616 -4.083862 -11.312785 0.000000 0.000000 0.000000 9.902012 6.280072 -10.178584 -1.667460 -8.136101 23.128231 -0.690209 -4.460615 -17.941538 -0.016140 -0.819566 2.252436 -4.911684 -1.460673 2.818508 1.960431 -2.072029 0.873675 4.844109 -1.047304 -0.432792 -11.074218 -0.448895 -21.160029 7.625729 1.510855 2.834962 4.322762 1.064196 4.043818 0.000000 0.000000 0.000000 54.430372 -58.903176 -13.807456 120.581106 -56.153083 86.141974 41.276260 16.965246 -27.576189 0.000000 0.000000 0.000000 -7.125000 0.000000 0.000000 14.567032 64.209630 -6.848835 0.000000 0.000000 0.000000 -11.395536 4.094387 16.817347 -23.970741 -35.133233 -7.689730 -26.523421 9.415633 -9.693316 0.000000 0.000000 0.000000 7.125000 0.000000 0.000000 0.324768 19.171764 0.200060
0.707349 17.979083 -0.692502 1.940137 -29.906235 2.803140 0.000000 0.000000 0.000000 -23.791039 -0.135122 -3.478279 0.593730 4.933054 13.717651 0.288013 2.613042 -11.442485 0.395315 -4.036728 -11.180066 0.000000 0.000000 0.000000 9.988965 6.376378 -10.230876 -1.659583 -8.117760 23.072368 -0.680521 -4.510819 -17.869553 -0.017197 -0.845379 2.323425 -4.848110 -1.435813 2.912636 1.956547 -2.041202 0.905301 4.805786 -1.031786 -0.459020 -11.055725 -0.435175 -20.856001 7.493099 1.501315 3.058027 4.274657 1.044337 4.069553 0.000000 0.000000 0.000000 52.648478 -58.469951 -15.532311 120.976263 -56.044118 86.469907 41.451186 17.211611 -27.764098 0.000000 0.000000 0.000000 -7.125000 0.000000 0.000000 14.829840 64.478289 -7.067605 0.000000 0.000000 0.000000 -11.355076 4.156692 16.927865 -24.084572 -35.253551 -7.755298 -26.618400 9.347268 -9.783758 0.000000 0.000000 0.000000 7.125000 0.000000 0.000000 0.262673 19.062535 0.162465
